# xmcd
#
# Track frame offsets: 
#        150
#        13517
#        25500
#        38467
#        50712
#        65235
#        77122
#        86372
#        101120
#        112945
#        124630
#        138880
#        150912
#        164610
#        177092
#        189032
#        201980
#        214290
#        225770
#        237882
#        249867
#        263852
#        278540
#        290177
#
# Disc length: 4018 seconds
#
# Revision: 1
# Processed by: cddbd v1.5.2PL0 Copyright (c) Steve Scherf et al.
# Submitted via: ExactAudioCopy v1.1
#
DISCID=370fb018
DTITLE=The Four Tops - On Top - Reach Out
DYEAR=2001
DGENRE=R&B
TTITLE0=I Got A Feeling (stereo)
TTITLE1=Brenda (stereo)
TTITLE2=Loving You Is Sweeter Than Ever (stereo)
TTITLE3=Shake Me, Wake Me (When It's Over) (stereo)
TTITLE4=Until You Love Someone (stereo)
TTITLE5=There's No Love Left (stereo)
TTITLE6=Matchmaker (stereo)
TTITLE7=Michelle (stereo)
TTITLE8=In the Still Of The Night (stereo)
TTITLE9=Bluesette (stereo)
TTITLE10=Quiet Nights Of Quiet Stars (stereo)
TTITLE11=Then (stereo)
TTITLE12=Reach Out, I'll Be There (stereo)
TTITLE13=Walk Away Renée (stereo)
TTITLE14=7 Rooms Of Gloom (stereo)
TTITLE15=If I Were A Carpenter (stereo)
TTITLE16=Last Train To Clarksville (stereo)
TTITLE17=I'll Turn To Stone (stereo)
TTITLE18=I'm A Believer (stereo)
TTITLE19=Standing In The Shadows Of Love (stereo)
TTITLE20=Bernadette (stereo)
TTITLE21=Cherish (stereo)
TTITLE22=Wonderful Baby (stereo)
TTITLE23=What Else Is There To Do (But Think About You) (stereo)
EXTD=
EXTT0=
EXTT1=
EXTT2=
EXTT3=
EXTT4=
EXTT5=
EXTT6=
EXTT7=
EXTT8=
EXTT9=
EXTT10=
EXTT11=
EXTT12=
EXTT13=
EXTT14=
EXTT15=
EXTT16=
EXTT17=
EXTT18=
EXTT19=
EXTT20=
EXTT21=
EXTT22=
EXTT23=
PLAYORDER=
